<?xml version="1.0" standalone="no"?><!-- Generator: Gravit.io --><svg xmlns="http://www.w3.org/2000/svg" xmlns:xlink="http://www.w3.org/1999/xlink" style="isolation:isolate" viewBox="144.5 54 511 512" width="511" height="512"><g style="isolation:isolate" id="icon-light-dark"><defs><filter id="0kJX03kX2vlaUjNqHmvpHcfGHK8xUTIR" x="-200%" y="-200%" width="400%" height="400%"><feOffset xmlns="http://www.w3.org/2000/svg" in="SourceAlpha" result="offOut" dx="0" dy="2"/><feGaussianBlur xmlns="http://www.w3.org/2000/svg" in="offOut" result="blurOut" stdDeviation="4"/><feComponentTransfer xmlns="http://www.w3.org/2000/svg" in="blurOut" result="opacOut"><feFuncA xmlns="http://www.w3.org/2000/svg" type="table" tableValues="0 0.5"/></feComponentTransfer><feBlend xmlns="http://www.w3.org/2000/svg" in="SourceGraphic" in2="opacOut" mode="normal"/></filter></defs><g filter="url(#0kJX03kX2vlaUjNqHmvpHcfGHK8xUTIR)"><path d=" M 164 309.5 C 164 179.524 269.524 74 399.5 74 C 529.476 74 635 179.524 635 309.5 C 635 439.476 529.476 545 399.5 545 C 269.524 545 164 439.476 164 309.5 Z " fill="rgb(255,183,77)"/><clipPath id="_clipPath_dADeRATBXHYzxtgS3t027Cyn4dBXrPxN"><g filter="url(#0kJX03kX2vlaUjNqHmvpHcfGHK8xUTIR)"><path d=" M 164 309.5 C 164 179.524 269.524 74 399.5 74 C 529.476 74 635 179.524 635 309.5 C 635 439.476 529.476 545 399.5 545 C 269.524 545 164 439.476 164 309.5 Z " fill="rgb(255,183,77)"/></g></clipPath><g clip-path="url(#_clipPath_dADeRATBXHYzxtgS3t027Cyn4dBXrPxN)"><path d=" M 400 53 L 400 202.5 L 476 386 L 654 386 L 635 74 L 400 53 Z " fill="rgb(64,196,255)"/><path d=" M 394 564 L 394 416.5 L 470 347 L 648 385 L 565 544 L 394 564 Z " fill="rgb(255,110,64)"/><path d=" M 438 218 L 499 74 L 196 74 L 157 196 L 323 233 L 438 218 Z " fill="rgb(238,255,65)"/><path d=" M 211 95 L 343 233 L 314 338 L 164 417.5 L 79 316 L 211 95 Z " fill="rgb(233,30,99)"/></g></g><mask id="_mask_NAp25A3JdUASeiPYq2uhjinMXx3jXvgA" x="-200%" y="-200%" width="400%" height="400%"><rect x="0" y="0" width="100%" height="100%" style="fill:white;"/><path d=" M 292 310 C 292 250.669 340.169 202.5 399.5 202.5 C 458.831 202.5 507 250.669 507 310 C 507 369.331 458.831 417.5 399.5 417.5 C 340.169 417.5 292 369.331 292 310 Z " fill="black" stroke="none"/></mask><path d=" M 292 310 C 292 250.669 340.169 202.5 399.5 202.5 C 458.831 202.5 507 250.669 507 310 C 507 369.331 458.831 417.5 399.5 417.5 C 340.169 417.5 292 369.331 292 310 Z " fill="rgb(255,255,255)" mask="url(#_mask_NAp25A3JdUASeiPYq2uhjinMXx3jXvgA)" vector-effect="non-scaling-stroke" stroke-width="32" stroke="rgb(0,0,0)" stroke-opacity="0.05" stroke-linejoin="miter" stroke-linecap="square" stroke-miterlimit="3"/><clipPath id="_clipPath_0LY9gkbq1C9WdGsilhhuZOTfcZEqPApP"><path d=" M 292 310 C 292 250.669 340.169 202.5 399.5 202.5 C 458.831 202.5 507 250.669 507 310 C 507 369.331 458.831 417.5 399.5 417.5 C 340.169 417.5 292 369.331 292 310 Z " fill="rgb(255,255,255)" mask="url(#_mask_NAp25A3JdUASeiPYq2uhjinMXx3jXvgA)" vector-effect="non-scaling-stroke" stroke-width="32" stroke="rgb(0,0,0)" stroke-opacity="0.05" stroke-linejoin="miter" stroke-linecap="square" stroke-miterlimit="3"/></clipPath><g clip-path="url(#_clipPath_0LY9gkbq1C9WdGsilhhuZOTfcZEqPApP)"><g transform="matrix(1,0,0,1,284.5,201.128)"><text transform="matrix(1,0,0,1,29.612,161.572)" style="font-family:&quot;Pacifico&quot;;font-weight:400;font-size:124px;font-style:normal;fill:#424242;stroke:none;">M</text></g></g><rect x="144.5" y="54" width="511" height="512" transform="matrix(1,0,0,1,0,0)" fill="none"/></g></svg>